<?xml version="1.0" encoding="utf-8"?>
<!-- Generator: Adobe Illustrator 21.0.2, SVG Export Plug-In . SVG Version: 6.00 Build 0)  -->
<svg version="1.1" id="Layer_1" xmlns="http://www.w3.org/2000/svg" xmlns:xlink="http://www.w3.org/1999/xlink" x="0px" y="0px"
	 viewBox="0 0 256.1 168.3" enable-background="new 0 0 256.1 168.3" xml:space="preserve">
<g>
	<g>
		<path fill="none" stroke="#FEE700" stroke-width="5" stroke-linecap="round" stroke-linejoin="round" stroke-miterlimit="10" d="
			M220.1,140.4c-1.6,7.1,0,5.2,0.5,2.7c16.8-80.7-130.7,25-178.5,19.5C-5.7,157,55.8,46.8,77.8,15.1c2.9-4.3,7.3-6-1.2,2.2
			c-1.7,1.6-4.2,5.8-6.1,8.9"/>
		<path fill="none" stroke="#FEE700" stroke-width="5" stroke-linecap="round" stroke-linejoin="round" stroke-miterlimit="10" d="
			M211.5,132.3c-7.6-5.7-4.4-6.5-2.8-4.4c0,0,10.9,14.2,8,29.5s5.4-12,18.6-24.6c1.9-1.8-2.7-0.3-4.3,5"/>
	</g>
	<g>
		<path fill="none" stroke="#353E4E" stroke-width="5" stroke-linecap="round" stroke-linejoin="round" stroke-miterlimit="10" d="
			M216.1,134.4c-1.6,7.1,0,5.2,0.5,2.7c16.8-80.7-130.7,25-178.5,19.5C-9.7,151,51.8,40.8,73.8,9.1c2.9-4.3,7.3-6-1.2,2.2
			c-1.7,1.6-4.2,5.8-6.1,8.9"/>
		<path fill="none" stroke="#353E4E" stroke-width="5" stroke-linecap="round" stroke-linejoin="round" stroke-miterlimit="10" d="
			M207.5,126.3c-7.6-5.7-4.4-6.5-2.8-4.4c0,0,10.9,14.2,8,29.5s5.4-12,18.6-24.6c1.9-1.8-2.7-0.3-4.3,5"/>
	</g>
</g>
</svg>
