<?xml version="1.0" encoding="utf-8"?>
<!-- Generator: Adobe Illustrator 21.0.2, SVG Export Plug-In . SVG Version: 6.00 Build 0)  -->
<svg width="110px" height="120px" version="1.0" id="Layer_1" xmlns="http://www.w3.org/2000/svg" xmlns:xlink="http://www.w3.org/1999/xlink" x="0px" y="0px"
	 viewBox="0 0 55.2 60" enable-background="new 0 0 55.2 60" xml:space="preserve">
<g id="g12_1_" transform="matrix(1.25,0,0,-1.25,-141.732,1034.6458)">
	<g id="g3228_1_">
		<g id="g208_1_">
			<g>
				<g id="g210_1_">
					<g id="g216_1_" transform="translate(127.1246,741.0876)">
						<path id="path218_1_" fill="#A5AAB4" d="M-8.4,52.9l-0.5,0.9h0.4l0.2-0.4c0,0,0.1-0.2,0.1-0.2h0c0,0.1,0,0.1,0.1,0.2l0.2,0.4
							h0.4l-0.5-0.8l0.5-0.9h-0.4l-0.2,0.4c-0.1,0.1-0.1,0.1-0.1,0.2h0c0-0.1,0-0.1-0.1-0.2L-8.5,52h-0.4L-8.4,52.9z"/>
					</g>
					<g id="g220_1_" transform="translate(131.5842,741.0876)">
						<path id="path222_1_" fill="#A5AAB4" d="M-11.1,52.9l-0.5,0.9h0.4l0.2-0.4c0,0,0.1-0.2,0.1-0.2h0c0,0.1,0,0.1,0.1,0.2l0.2,0.4
							h0.4l-0.5-0.8l0.5-0.9h-0.4l-0.2,0.4c-0.1,0.1-0.1,0.1-0.1,0.2h0c0-0.1,0-0.1-0.1-0.2l-0.2-0.4h-0.4L-11.1,52.9z"/>
					</g>
					<g id="g224_1_" transform="translate(137.0635,741.7433)">
						<path id="path226_1_" fill="#A5AAB4" d="M-14.5,52.5c0,0.4,0.2,0.6,0.6,0.6c0.1,0,0.3,0,0.4-0.1c0.2-0.1,0.2-0.3,0.2-0.5h-0.4
							c0,0.1,0,0.3-0.2,0.3c0,0-0.1,0-0.1-0.1c-0.1-0.1-0.1-0.1-0.1-0.2v-0.7c0-0.1,0-0.3,0.2-0.3c0.2,0,0.2,0.1,0.2,0.3h0.4
							c0-0.1,0-0.1,0-0.2c0-0.1,0-0.2-0.2-0.3c-0.1-0.1-0.3-0.1-0.4-0.1c-0.2,0-0.3,0-0.5,0.2c-0.1,0.1-0.2,0.2-0.2,0.5V52.5z"/>
					</g>
					<g id="g228_1_" transform="translate(145.3258,743.2734)">
						<path id="path230_1_" fill="#A5AAB4" d="M-19.5,51.5h0.5l0.2-0.7c0-0.1,0-0.1,0.1-0.2c0,0,0-0.2,0.1-0.2h0
							c0,0.1,0.1,0.3,0.1,0.4l0.2,0.7h0.5v-1.8h-0.3v1c0,0.1,0,0.3,0,0.5h0l-0.4-1.5h-0.3l-0.4,1.5h0c0-0.1,0-0.4,0-0.5v-0.9h-0.3
							V51.5z"/>
					</g>
					<g id="g232_1_" transform="translate(150.7594,743.2734)">
						<path id="path234_1_" fill="#A5AAB4" d="M-22.8,51.5h0.5l0.2-0.7c0-0.1,0-0.1,0.1-0.2c0,0,0-0.2,0.1-0.2h0
							c0,0.1,0.1,0.3,0.1,0.4l0.2,0.7h0.5v-1.8h-0.3v1c0,0.1,0,0.3,0,0.5h0l-0.4-1.5h-0.3l-0.4,1.5h0c0-0.1,0-0.4,0-0.5v-0.9h-0.3
							V51.5z"/>
					</g>
					<g id="g236_1_" transform="translate(158.8455,742.921)">
						<path id="path238_1_" fill="#A5AAB4" d="M-27.7,51.8c-0.1,0.1-0.3,0.2-0.5,0.2c-0.2,0-0.3,0-0.4-0.2c-0.1-0.1-0.2-0.3-0.2-0.5
							v-0.5c0-0.1,0-0.2,0-0.4c0.1-0.3,0.4-0.4,0.5-0.4c0.1,0,0.3,0,0.5,0.2c0.1,0.1,0.2,0.3,0.2,0.5v0.4
							C-27.6,51.5-27.6,51.7-27.7,51.8 M-28,50.7c0-0.1,0-0.3-0.2-0.3c-0.2,0-0.2,0.1-0.2,0.3v0.6c0,0.1,0,0.3,0.2,0.3
							c0.2,0,0.2-0.1,0.2-0.3V50.7z"/>
					</g>
					<g id="g240_1_" transform="translate(160.2875,743.2734)">
						<path id="path242_1_" fill="#A5AAB4" d="M-28.6,51.5h0.4l0.5-0.8c0,0,0-0.1,0.1-0.1c0,0,0-0.1,0-0.1h0l0,0.2
							c0,0.1,0,0.1,0,0.2v0.7h0.4v-1.8h-0.3l-0.5,0.9c0,0.1,0,0.1-0.1,0.3h0c0-0.1,0-0.3,0-0.3v-0.8h-0.4V51.5z"/>
					</g>
					<g id="g244_1_" transform="translate(165.3455,743.2734)">
						<path id="path246_1_" fill="#A5AAB4" d="M-31.7,51.5l0.2-0.8c0,0,0-0.2,0-0.2l0-0.2h0c0,0,0,0.1,0,0.2c0,0,0,0.2,0,0.2
							l0.2,0.8h0.3l0.2-0.8c0,0,0.1-0.3,0.1-0.4h0c0,0.1,0.1,0.3,0.1,0.3l0.2,0.8h0.3l-0.4-1.8h-0.3l-0.2,0.9c0,0.1-0.1,0.3-0.1,0.3
							h0c0-0.1-0.1-0.3-0.1-0.3l-0.2-0.9h-0.3l-0.4,1.8H-31.7z"/>
					</g>
					<g id="g248_1_" transform="translate(143.8786,742.921)">
						<path id="path250_1_" fill="#A5AAB4" d="M-18.6,51.8c-0.1,0.1-0.3,0.2-0.5,0.2c-0.2,0-0.3,0-0.4-0.2c-0.1-0.1-0.2-0.3-0.2-0.5
							v-0.5c0-0.1,0-0.2,0-0.4c0.1-0.3,0.4-0.4,0.5-0.4c0.1,0,0.3,0,0.5,0.2c0.1,0.1,0.2,0.3,0.2,0.5v0.4
							C-18.5,51.5-18.5,51.7-18.6,51.8 M-18.9,50.7c0-0.1,0-0.3-0.2-0.3c-0.2,0-0.2,0.1-0.2,0.3v0.6c0,0.1,0,0.3,0.2,0.3
							c0.2,0,0.2-0.1,0.2-0.3C-18.9,51.3-18.9,50.7-18.9,50.7z"/>
					</g>
				</g>
			</g>
		</g>
		<g id="g252_1_" transform="translate(170.725,743.2734)">
			<path id="path254_1_" fill="#A5AAB4" d="M-35,51.5h1.2v-0.3h-0.8v-0.4h0.6v-0.3h-0.5v-0.4h0.9v-0.3H-35V51.5z"/>
		</g>
		<g id="g256_1_" transform="translate(177.1602,743.2734)">
			<path id="path258_1_" fill="#A5AAB4" d="M-38.9,51.5h-0.5l-0.5-1.8h0.4l0.1,0.4h0.5l0.1-0.4h0.4L-38.9,51.5z M-39.4,50.4l0.2,0.8
				h0l0.2-0.8H-39.4z"/>
		</g>
		<g id="g260_1_" transform="translate(179.26,743.2734)">
			<path id="path262_1_" fill="#A5AAB4" d="M-40.2,51.5h0.4v-1.4h0.8v-0.3h-1.2V51.5z"/>
		</g>
		<g id="g264_1_" transform="translate(185.7482,743.2734)">
			<path id="path266_1_" fill="#A5AAB4" d="M-44.2,51.5v-0.3h-0.4v-1.4H-45v1.4h-0.5v0.3H-44.2z"/>
		</g>
		<g id="g268_1_" transform="translate(186.6181,743.2734)">
			<path id="path270_1_" fill="#A5AAB4" d="M-44.7,51.5h0.4v-0.7h0.5v0.7h0.4v-1.8h-0.4v0.8h-0.5v-0.8h-0.4V51.5z"/>
		</g>
		<g id="g272_1_">
			<g>
				<g id="g274_1_">
					<g id="g280_1_" transform="translate(193.1193,741.5958)">
						<path id="path282_1_" fill="#A5AAB4" d="M-48.7,52.6c0,0.2,0,0.4,0.2,0.5c0.1,0.1,0.3,0.1,0.5,0.1c0.3,0,0.6-0.2,0.6-0.5h-0.4
							c0,0.2-0.1,0.2-0.2,0.2c-0.2,0-0.2-0.2-0.2-0.3v-0.6c0-0.2,0-0.4,0.2-0.4c0.2,0,0.2,0.2,0.2,0.2v0.1H-48v0.3h0.6v-0.9h-0.2
							l-0.1,0.1h0c-0.1-0.1-0.1-0.2-0.4-0.2c-0.2,0-0.3,0.1-0.5,0.2c-0.1,0.1-0.1,0.3-0.1,0.5V52.6z"/>
					</g>
				</g>
			</g>
		</g>
		<g id="g284_1_" transform="translate(199.5767,743.2734)">
			<path id="path286_1_" fill="#A5AAB4" d="M-52.6,51.5h-0.5l-0.5-1.8h0.4l0.1,0.4h0.5l0.1-0.4h0.4L-52.6,51.5z M-53,50.4l0.2,0.8h0
				l0.2-0.8H-53z"/>
		</g>
		<g id="g288_1_">
			<g>
				<g id="g290_1_">
					<g id="g296_1_" transform="translate(201.7433,743.2734)">
						<path id="path298_1_" fill="#A5AAB4" d="M-53.9,51.5h0.5l0.2-0.7c0-0.1,0-0.1,0-0.2c0,0,0-0.2,0.1-0.2h0
							c0,0.1,0.1,0.3,0.1,0.4l0.2,0.7h0.5v-1.8h-0.3v1c0,0.1,0,0.3,0,0.5h0l-0.4-1.5h-0.3l-0.4,1.5h0c0-0.1,0-0.4,0-0.5v-0.9h-0.3
							V51.5z"/>
					</g>
				</g>
			</g>
		</g>
		<g id="g300_1_" transform="translate(207.1451,743.2734)">
			<path id="path302_1_" fill="#A5AAB4" d="M-57.2,51.5h1.2v-0.3h-0.8v-0.4h0.6v-0.3h-0.5v-0.4h0.9v-0.3h-1.2V51.5z"/>
		</g>
		<g id="g304_1_">
			<g>
				<g id="g306_1_">
					<g id="g312_1_" transform="translate(213.4912,742.0542)">
						<path id="path314_1_" fill="#A5AAB4" d="M-61.1,52.3c-0.1,0.1-0.2,0.2-0.3,0.2c-0.2,0-0.2-0.2-0.2-0.2c0-0.1,0.1-0.2,0.2-0.2
							l0.2-0.1c0.1,0,0.2-0.1,0.3-0.2c0,0,0.1-0.1,0.1-0.3c0-0.1,0-0.3-0.3-0.5c-0.1-0.1-0.3-0.1-0.3-0.1c-0.3,0-0.5,0.1-0.7,0.4
							l0.3,0.2c0.1-0.1,0.2-0.2,0.3-0.2c0.1,0,0.2,0,0.2,0.2c0,0.1-0.1,0.2-0.3,0.3c-0.3,0.1-0.5,0.2-0.5,0.6c0,0.3,0.2,0.5,0.6,0.5
							c0.3,0,0.4-0.1,0.6-0.3L-61.1,52.3z"/>
					</g>
				</g>
			</g>
		</g>
		<g id="g316_1_" transform="translate(213.4562,731.7939)">
			<path id="path318_1_" fill="#A5AAB4" d="M-61.1,58.5l0.3,1.3h-34.5l0.3-1.3H-61.1z"/>
		</g>
		<g id="g320_1_">
			<g>
				<g id="g322_1_">
					<g id="g328_1_" transform="translate(195.6541,728.3297)">
						<path id="path330_1_" fill="#A5AAB4" d="M-50.2,60.7c-0.2-2.3-3.2-4.2-7.2-4.8l0-0.2c6.6,0.4,11.7,2.5,11.8,5H-50.2z"/>
					</g>
					<g id="g332_1_" transform="translate(144.4866,728.3297)">
						<path id="path334_1_" fill="#A5AAB4" d="M-19,60.7h-4.6c0.1-2.5,5.2-4.6,11.8-5l0,0.2C-15.8,56.4-18.8,58.4-19,60.7"/>
					</g>
				</g>
			</g>
		</g>
		<g id="g336_1_" transform="translate(173.3584,728.3297)" opacity="0.66">
			<path id="path338_1_" fill="#A5AAB4" d="M-36.6,60.7v-7.3h0.1l1.8,7.3H-36.6z"/>
		</g>
		<g id="g340_1_" transform="translate(167.5758,728.3297)" opacity="0.33">
			<path id="path342_1_" fill="#A5AAB4" d="M-33.1,60.7l0.9-9.3h0.1l0.9,9.3H-33.1z"/>
		</g>
		<g id="g344_1_" transform="translate(161.7666,728.3297)" opacity="0.66">
			<path id="path346_1_" fill="#A5AAB4" d="M-29.5,60.7l1.8-7.3h0.1v7.3H-29.5z"/>
		</g>
		<g id="g348_1_" transform="translate(217.5543,748.4735)">
			<path id="path350_1_" fill="#A5AAB4" d="M-63.6,48.4h-0.6v3.7h-0.6v0.5h0.6h0.6V48.4z"/>
		</g>
		<g id="g352_1_" transform="translate(225.4072,752.0577)">
			<path id="path354_1_" fill="#A5AAB4" d="M-68.4,46.2V49h-0.2l-2.4-3.4h2.1v-0.9h0.5v0.9h0.5v0.5H-68.4z M-68.9,46.2H-70l1.1,1.6
				C-68.9,47.7-68.9,46.2-68.9,46.2z"/>
		</g>
		<g id="g356_1_">
			<g>
				<g id="g358_1_">
					<g id="g364_1_" transform="translate(157.5219,748.1243)">
						<path id="path366_1_" fill="#A5AAB4" d="M-26.9,48.6c-1.2,0-2.2,1-2.2,2.3c0,1.2,1,2.2,2.2,2.2c0.7,0,1.4-0.3,1.8-0.9l0,0
							l-0.5-0.3l0,0c-0.3,0.4-0.8,0.7-1.4,0.7c-0.9,0-1.7-0.8-1.7-1.7c0-0.9,0.8-1.7,1.7-1.7c0.8,0,1.5,0.6,1.7,1.4H-27v0.6h2.3
							v-0.3C-24.7,49.6-25.7,48.6-26.9,48.6"/>
					</g>
					<g id="g368_1_" transform="translate(119.1516,748.1243)">
						<path id="path370_1_" fill="#A5AAB4" d="M-3.5,48.6c-1.2,0-2.2,1-2.2,2.3c0,1.2,1,2.2,2.2,2.2c0.7,0,1.4-0.3,1.8-0.9l0,0
							l-0.5-0.3l0,0c-0.3,0.4-0.8,0.7-1.4,0.7c-0.9,0-1.7-0.8-1.7-1.7c0-0.9,0.8-1.7,1.7-1.7c0.8,0,1.5,0.6,1.7,1.4h-1.7v0.6h2.3
							v-0.3C-1.3,49.6-2.3,48.6-3.5,48.6"/>
					</g>
					<g id="g372_1_" transform="translate(147.2596,748.1296)">
						<path id="path374_1_" fill="#A5AAB4" d="M-20.7,48.6c-0.7,0-1.2,0.4-1.3,1l0,0l0.5,0.2l0,0c0.1-0.5,0.4-0.8,0.8-0.8
							c0.5,0,0.8,0.3,0.8,0.8c0,0.4-0.2,0.6-0.6,0.8l-0.5,0.2c-0.6,0.2-0.8,0.6-0.8,1.1c0,0.6,0.5,1.1,1.2,1.1
							c0.5,0,0.9-0.2,1.1-0.7l0,0l-0.5-0.3l0,0c-0.2,0.3-0.4,0.5-0.7,0.5c-0.4,0-0.6-0.2-0.6-0.6c0-0.3,0.2-0.5,0.6-0.7l0.6-0.3
							c0.6-0.2,0.8-0.6,0.8-1.2C-19.3,49.1-19.9,48.6-20.7,48.6"/>
					</g>
					<g id="g376_1_" transform="translate(170.317,748.1147)">
						<path id="path378_1_" fill="#A5AAB4" d="M-34.7,48.6c-0.6,0-1.2,0.2-1.6,0.7c-0.4,0.4-0.7,1-0.7,1.6c0,0.6,0.2,1.2,0.7,1.6
							c0.4,0.4,1,0.7,1.6,0.7c0.6,0,1.2-0.2,1.6-0.7c0.4-0.4,0.7-1,0.7-1.6c0-0.6-0.2-1.2-0.7-1.6C-33.6,48.8-34.1,48.6-34.7,48.6
							 M-34.7,52.6c-0.5,0-0.9-0.2-1.2-0.5c-0.3-0.3-0.5-0.8-0.5-1.2c0-0.5,0.2-0.9,0.5-1.2c0.3-0.3,0.7-0.5,1.2-0.5
							c0.5,0,0.9,0.2,1.2,0.5c0.3,0.3,0.5,0.7,0.5,1.2c0,0.5-0.2,0.9-0.5,1.2C-33.9,52.4-34.3,52.6-34.7,52.6"/>
					</g>
					<g id="g380_1_" transform="translate(209.24,748.047)">
						<path id="path382_1_" fill="#A5AAB4" d="M-58.5,48.6c-0.9,0-1.5,0.9-1.5,2.3c0,1.4,0.6,2.3,1.5,2.3c0.9,0,1.5-0.9,1.5-2.3
							C-57,49.5-57.6,48.6-58.5,48.6 M-58.5,52.6c-0.6,0-0.9-0.7-0.9-1.8c0-1.1,0.4-1.8,0.9-1.8c0.6,0,0.9,0.7,0.9,1.8
							C-57.6,52-57.9,52.6-58.5,52.6"/>
					</g>
				</g>
			</g>
		</g>
		<g id="g384_1_" transform="translate(181.1225,748.4702)">
			<path id="path386_1_" fill="#A5AAB4" d="M-41.3,48.4l1,3l1-3h0.2l1.6,4.3h-0.6l-1.1-3.1l-1.1,3.1h-0.2l-1-3.1l-1,3l0,0h-0.6
				l1.6-4.3H-41.3z"/>
		</g>
		<g id="g388_1_" transform="translate(132.0368,748.4702)">
			<path id="path390_1_" fill="#A5AAB4" d="M-11.4,48.4v0.5H-13v3.7h-0.6v-4.3H-11.4z"/>
		</g>
		<g id="g392_1_" transform="translate(134.8592,748.4702)">
			<path id="path394_1_" fill="#A5AAB4" d="M-13.1,48.4l0.5,1.3h1.6l0.5-1.3h0.6l-1.9,4.3h-0.2l-1.9-4.3H-13.1z M-11.8,51.6l0.6-1.5
				h-1.3L-11.8,51.6z"/>
		</g>
		<g id="g396_1_">
			<g>
				<g id="g398_1_">
					<g id="g404_1_" transform="translate(199.5051,749.7212)">
						<path id="path406_1_" fill="#A5AAB4" d="M-52.6,47.6l0.9,1c0.6,0.6,0.9,1,0.9,1.6c0,0.7-0.6,1.3-1.4,1.3
							c-0.9,0-1.4-0.6-1.4-1.3h0.5c0.1,0.4,0.3,0.9,0.9,0.9c0.5,0,0.9-0.3,0.9-0.8c0-0.4-0.3-0.8-0.7-1.3l-1.7-1.8h3v0.5H-52.6z"/>
					</g>
					<g id="g408_1_" transform="translate(170.0781,827.7166)" opacity="0.66">
						<path id="path410_1_" fill="#A5AAB4" d="M-34.6,0c-6.8,0-12.3-5.5-12.3-12.3s5.5-12.3,12.3-12.3c6.8,0,12.3,5.5,12.3,12.3
							S-27.8,0-34.6,0 M-34.6-23.2c-6,0-11,4.9-11,11c0,6,4.9,10.9,11,10.9c6,0,11-4.9,11-10.9C-23.7-18.3-28.6-23.2-34.6-23.2"/>
					</g>
					<g id="g412_1_" transform="translate(170.0781,822.7885)" opacity="0.33">
						<path id="path414_1_" fill="#A5AAB4" d="M-34.6,3L-34.6,3V1.7c5,0,9-4,9-9c0-5-4-9-9-9c-5,0-9,4-9,9c0,2,0.6,3.8,1.7,5.3
							L-43-1.3c-1.2-1.7-2-3.8-2-6.1c0-5.7,4.6-10.4,10.4-10.4c5.7,0,10.4,4.6,10.4,10.4C-24.2-1.6-28.9,3-34.6,3"/>
					</g>
					<g id="g416_1_" transform="translate(170.0803,817.8611)" opacity="0.66">
						<path id="path418_1_" fill="#A5AAB4" d="M-34.6,6V4.7c3.9,0,7.1-3.2,7.1-7.1c0-3.9-3.2-7.1-7.1-7.1c-0.8,0-1.5,0.1-2.2,0.3
							l-0.4-1.3c0.8-0.3,1.7-0.4,2.6-0.4c4.7,0,8.5,3.8,8.5,8.5C-26.1,2.2-29.9,6-34.6,6"/>
					</g>
					<g id="g420_1_" transform="translate(186.7724,797.8807)" opacity="0.33">
						<path id="path422_1_" fill="#A5AAB4" d="M-44.8,18.2h-6.5v-1.4h5.1c-0.3-2.5-2.5-4.5-5.1-4.5c-2.9,0-5.2,2.3-5.2,5.2
							s2.3,5.2,5.2,5.2c1.7,0,3.3-0.8,4.2-2.1l1.1,0.8c-1.2,1.6-3.1,2.7-5.3,2.7c-3.6,0-6.5-2.9-6.5-6.5s2.9-6.5,6.5-6.5
							c3.6,0,6.5,2.9,6.5,6.5C-44.8,17.8-44.8,18-44.8,18.2"/>
					</g>
				</g>
			</g>
		</g>
	</g>
</g>
<g>
</g>
<g>
</g>
<g>
</g>
<g>
</g>
<g>
</g>
<g>
</g>
</svg>
