<?xml version="1.0" encoding="utf-8"?>
<!-- Generator: Adobe Illustrator 21.0.2, SVG Export Plug-In . SVG Version: 6.00 Build 0)  -->
<svg width="110px" height="60px" version="1.0" id="Layer_1" xmlns="http://www.w3.org/2000/svg" xmlns:xlink="http://www.w3.org/1999/xlink" x="0px" y="0px"
	 viewBox="0 0 159.1 55.1" enable-background="new 0 0 159.1 55.1" xml:space="preserve">
<g transform="translate(-104.9 -302.8)">
	<path fill="#A5AAB4" d="M104.9,353.9H264v3.9H104.9C104.9,357.9,104.9,353.9,104.9,353.9z"/>
	<path fill="#A5AAB4" d="M177.5,317.9l-7.2,9.5l-8.1-9.5h-16.7l13.8,16.3v8.6h14.5v-8.1l12.7-16.9L177.5,317.9L177.5,317.9z"/>
	<path fill="#A5AAB4" d="M188.7,317.9v24.9H222v-5.2h-20.3v-4.7h18.1v-5.2h-18.1v-4.8H222v-5L188.7,317.9L188.7,317.9z"/>
	<path fill="#A5AAB4" d="M130.4,317.9l-5.7,11.3l-5.7-11.3h-13.8v24.9h3.4v-16.3l8.4,16.3h7.4l7.2-16.3v16.3h12.7v-24.9H130.4
		L130.4,317.9z"/>
	<path fill="#A5AAB4" d="M263.8,324.9c0-4.8-4.3-7-9.7-7h-26.5v24.9h13.1v-9.7l7.9,9.7h15.2l-8.6-10.8
		C260,331.7,263.8,329.2,263.8,324.9L263.8,324.9z M246.2,327h-5.6v-4.1h5.6c1.6,0,3,0.7,3,2.2C249.3,326.3,247.8,327,246.2,327z"/>
</g>
<g>
</g>
<g>
</g>
<g>
</g>
<g>
</g>
<g>
</g>
<g>
</g>
</svg>
