<?xml version="1.0" encoding="utf-8"?>
<!-- Generator: Adobe Illustrator 21.0.2, SVG Export Plug-In . SVG Version: 6.00 Build 0)  -->
<svg width="160px" height="60px" version="1.0" id="Layer_1" xmlns="http://www.w3.org/2000/svg" xmlns:xlink="http://www.w3.org/1999/xlink" x="0px" y="0px"
	 viewBox="0 0 200 38" enable-background="new 0 0 200 38" xml:space="preserve">
<g>
	<path id="NVIDIA_3_" fill="#A5AAB4" d="M122.2,7.2l0,24.9h7V7.2L122.2,7.2z M66.8,7.1v25h7.1V12.7l5.5,0c1.8,0,3.1,0.4,4,1.4
		c1.1,1.2,1.6,3.1,1.6,6.6v11.4h6.9V18.3c0-9.8-6.3-11.2-12.4-11.2H66.8z M133.5,7.2v24.9H145c6.1,0,8.1-1,10.2-3.3
		c1.5-1.6,2.5-5.1,2.5-8.9c0-3.5-0.8-6.6-2.3-8.6c-2.6-3.5-6.4-4.2-12-4.2H133.5z M140.5,12.6h3c4.4,0,7.2,2,7.2,7.1
		c0,5.1-2.8,7.1-7.2,7.1h-3V12.6z M112.1,7.2l-5.9,19.8l-5.6-19.8l-7.6,0l8,24.9h10.1l8.1-24.9H112.1z M161,32.1h7V7.2l-7,0
		L161,32.1z M180.7,7.2l-9.8,24.9h6.9l1.6-4.4H191l1.5,4.4h7.5l-9.9-24.9L180.7,7.2z M185.3,11.7l4.3,11.7h-8.7L185.3,11.7z"/>
	<path id="Eye_Mark_1_" fill="#A5AAB4" d="M21.4,11.3V7.9c0.3,0,0.7,0,1-0.1C31.8,7.6,38,15.9,38,15.9s-6.6,9.2-13.8,9.2
		c-1,0-1.9-0.2-2.8-0.4V14.3c3.7,0.4,4.4,2.1,6.6,5.7l4.9-4.1c0,0-3.6-4.7-9.6-4.7C22.7,11.2,22,11.3,21.4,11.3 M21.4,0v5.1
		c0.3,0,0.7,0,1-0.1C35.5,4.6,44,15.8,44,15.8S34.2,27.6,24,27.6c-0.9,0-1.8-0.1-2.6-0.2v3.2c0.7,0.1,1.4,0.1,2.2,0.1
		c9.5,0,16.3-4.8,22.9-10.6c1.1,0.9,5.6,3,6.5,4c-6.3,5.3-21,9.5-29.3,9.5c-0.8,0-1.6,0-2.3-0.1V38h36V0H21.4z M21.4,24.7v2.7
		c-8.8-1.6-11.2-10.7-11.2-10.7s4.2-4.7,11.2-5.4v3c0,0,0,0,0,0c-3.7-0.4-6.5,3-6.5,3S16.5,23,21.4,24.7 M5.9,16.4
		c0,0,5.2-7.7,15.6-8.4V5.1C9.9,6,0,15.8,0,15.8S5.6,32,21.4,33.5v-3C9.8,29.1,5.9,16.4,5.9,16.4z"/>
</g>
<g>
</g>
<g>
</g>
<g>
</g>
<g>
</g>
<g>
</g>
<g>
</g>
</svg>
