<?xml version="1.0" encoding="utf-8"?>
<!-- Generator: Adobe Illustrator 21.0.2, SVG Export Plug-In . SVG Version: 6.00 Build 0)  -->
<svg width="140px" height="60px" version="1.0" id="Layer_1" xmlns="http://www.w3.org/2000/svg" xmlns:xlink="http://www.w3.org/1999/xlink" x="0px" y="0px"
	 viewBox="0 0 200 37.2" enable-background="new 0 0 200 37.2" xml:space="preserve">
<g>
	<path fill="#A5AAB4" d="M0,32.4l3.8-4.5c2.6,2.2,5.4,3.5,8.7,3.5c2.6,0,4.2-1,4.2-2.7v-0.1c0-1.6-1-2.5-5.9-3.7
		c-5.9-1.5-9.6-3.1-9.6-8.9v-0.1c0-5.3,4.2-8.8,10.2-8.8c4.2,0,7.9,1.3,10.8,3.7l-3.3,4.8c-2.6-1.8-5.1-2.9-7.6-2.9
		c-2.5,0-3.7,1.1-3.7,2.5v0.1c0,1.9,1.2,2.5,6.3,3.8c5.9,1.5,9.2,3.7,9.2,8.7v0.1c0,5.8-4.4,9-10.7,9C7.9,37.1,3.5,35.6,0,32.4"/>
	<path fill="#A5AAB4" d="M24.9,30.4V19.8h-2.7v-5.4h2.7V8.7h6.3v5.7h5.2v5.4h-5.2v9.5c0,1.5,0.6,2.2,2,2.2c1.1,0,2.2-0.3,3.1-0.8
		v5.1c-1.3,0.8-2.9,1.3-5,1.3C27.5,37,24.9,35.5,24.9,30.4 M51.9,28.8v-1.1c-1.1-0.5-2.5-0.8-4-0.8c-2.7,0-4.4,1.1-4.4,3.1V30
		c0,1.7,1.4,2.7,3.5,2.7C49.9,32.7,51.9,31.1,51.9,28.8 M37.3,30.3L37.3,30.3c0-4.9,3.7-7.2,9-7.2c2.2,0,3.9,0.4,5.4,0.9v-0.4
		c0-2.6-1.6-4.1-4.8-4.1c-2.4,0-4.1,0.5-6.2,1.2l-1.6-4.8c2.5-1.1,4.9-1.8,8.7-1.8c3.5,0,5.9,0.9,7.5,2.5c1.7,1.7,2.4,4.1,2.4,7.1
		v12.9h-6.1v-2.4c-1.5,1.7-3.7,2.8-6.7,2.8C40.8,37.1,37.3,34.7,37.3,30.3 M58.9,25.7L58.9,25.7c0-6.4,4.9-11.7,11.7-11.7
		c4.2,0,6.8,1.4,8.9,3.7l-3.9,4.2c-1.4-1.5-2.8-2.5-5.1-2.5c-3.2,0-5.4,2.8-5.4,6.1v0.1c0,3.4,2.2,6.2,5.7,6.2
		c2.1,0,3.6-0.9,5.1-2.4l3.7,3.7c-2.2,2.4-4.7,4.1-9.1,4.1C63.8,37.2,58.9,32,58.9,25.7 M80.6,6.3H87v16.2l7.4-8.1h7.6l-8.5,8.8
		l8.8,13.5h-7.3l-5.7-9.2L87,29.9v6.8h-6.3L80.6,6.3z M103.3,6.3h6.3v30.4h-6.3V6.3z M125.4,28.8v-1.1c-1.1-0.5-2.5-0.8-4-0.8
		c-2.7,0-4.4,1.1-4.4,3.1V30c0,1.7,1.4,2.7,3.5,2.7C123.4,32.7,125.4,31.1,125.4,28.8 M110.8,30.3L110.8,30.3c0-4.9,3.7-7.2,9-7.2
		c2.2,0,3.9,0.4,5.4,0.9v-0.4c0-2.6-1.6-4.1-4.8-4.1c-2.4,0-4.1,0.5-6.2,1.2l-1.6-4.8c2.5-1.1,4.9-1.8,8.7-1.8
		c3.5,0,5.9,0.9,7.5,2.5c1.7,1.7,2.4,4.1,2.4,7.1v12.9h-6.1v-2.4c-1.5,1.7-3.7,2.8-6.7,2.8C114.3,37.1,110.8,34.7,110.8,30.3
		 M179.3,6.4c2.3,1.2,4.1,0.4,4.1-1.8l0-4.6L200,22.4l-16.6,5.6v-2.8c0-3.2-2-6-4.7-7.4l-11.4-5.9c-2.5-1.3-3.6-4.4-2.3-7
		c1.3-2.6,4.4-3.6,7-2.2L179.3,6.4L179.3,6.4z M158.3,30.2c-2.3-1.2-4.1-0.4-4.1,1.8l0,4.6l-16.6-22.4l16.6-5.6v2.8
		c0,3.2,2,6,4.7,7.4l11.4,5.9c2.5,1.3,3.6,4.4,2.3,7c-1.3,2.6-4.4,3.6-7,2.2L158.3,30.2L158.3,30.2z"/>
</g>
<g>
</g>
<g>
</g>
<g>
</g>
<g>
</g>
<g>
</g>
<g>
</g>
</svg>
