<?xml version="1.0" encoding="utf-8"?>
<!-- Generator: Adobe Illustrator 21.0.2, SVG Export Plug-In . SVG Version: 6.00 Build 0)  -->
<svg width="120px" height="60px" version="1.0" id="Layer_1" xmlns="http://www.w3.org/2000/svg" xmlns:xlink="http://www.w3.org/1999/xlink" x="0px" y="0px"
	 viewBox="0 0 155 40" enable-background="new 0 0 155 40" xml:space="preserve">
<g>
	<path opacity="0.5" fill="#A5AAB4" d="M23.4,17.6l-1.6,9.1c-0.3,1.6-1.3,2.1-2.3,2.1h-7.1l3-16.7c-3-1.4-6.1-2.3-8.5-2.3
		c-2.3,0-4.2,0.6-5.5,2.1C0.4,13.1,0,14.4,0,16c0,4.7,3.7,11.3,10.1,16.7C15.8,37.4,22,40,26.6,40c2.3,0,4.1-0.7,5.3-2.1
		c0.9-1.1,1.3-2.5,1.3-4C33.2,29.3,29.5,22.8,23.4,17.6"/>
	<path fill="#A5AAB4" d="M82.8,23.1c0-3.3-11.3-1-11.3-7.7c0-6.2,6.7-7.8,11-7.8c4.4,0,9.7,1,9.2,6.5h-7.4c0.1-0.8-0.2-2-2.5-2
		c-1.3,0-2.2,0.6-2.2,1.4c0,3,11.7,1.3,11.7,7.8c0,5.3-4.9,8.2-12.2,8.2c-5,0-10-1.4-9.5-7h7.8c-0.1,0.9,0.1,2.5,2.7,2.5
		C81.5,24.9,82.8,24.3,82.8,23.1 M121.5,12.4l0.7-4.2h-7.3l-3.7,20.6h6.2c1,0,2-0.4,2.3-2.1l0.9-5c0.9-4.5,2.8-6.1,5.9-6.1
		c0.7,0,1.4,0.1,2,0.3l1.5-8.2c-0.3-0.1-0.8-0.1-1.3-0.1c-3,0-5.2,1.5-7,4.8L121.5,12.4L121.5,12.4z M104.1,20.4l1.1-6.3h4.1
		l1.1-5.9h-4.1l1.1-6.4h-5.9c-0.9,0-2,0.4-2.3,2.1l-0.8,4.3h-3.1l-1.1,5.9h3.1l-1.3,7.4c-0.3,1.5-0.4,2.7-0.4,3.7
		c0,3.3,2.8,4.2,11,3.6l1-5.9h-1.5C103.9,23,103.7,22.3,104.1,20.4 M70.2,0.4H64c-0.9,0-2,0.4-2.3,2.1L57,28.8h6.2
		c1,0,2-0.4,2.3-2.1L70.2,0.4z M10.5,0C9.4,0,8.5,0.8,8.2,2l-1,5.5h9l-3.9,21.3h7.2c1,0,2-0.4,2.4-2.1l3.3-19.2h6.5
		c1.1,0,2.1-0.8,2.3-2L35,0H10.5z M40.5,16.2h7.4c0.4-1.9-1.1-3.6-3-3.6C42.5,12.6,40.8,13.9,40.5,16.2 M39.7,20.4
		c-0.4,2.4,1.3,4,3.4,4c1.3,0,2.6-0.6,3.3-1.8h7.9c-2.3,5.1-7.6,6.8-12.5,6.8c-5.9,0-10.2-3-10.2-8.8c0-8.3,7.1-13.1,13.8-13.1
		c6.6,0,10.3,3.9,10.3,9.8c0,0.9-0.1,2-0.3,3C55.4,20.4,39.7,20.4,39.7,20.4z M145.3,17c0-1.7-0.9-3.1-2.8-3.1
		c-2.7,0-4.5,2.8-4.5,6.6c0,1.7,0.6,3.1,2.5,3.1C143.5,23.5,145.3,20.7,145.3,17 M155,8.1l-3.7,20.6H144l0.5-2.7h-0.1
		c-2.1,2.4-4.5,3.3-7,3.3c-5,0-7.6-3.4-7.6-8.2c0-7.2,4.8-13.6,11-13.6c2.6,0,4.5,0.8,5.6,2.8h0.1c0.3-1.7,1.3-2.3,2.4-2.3L155,8.1
		L155,8.1z"/>
</g>
<g>
</g>
<g>
</g>
<g>
</g>
<g>
</g>
<g>
</g>
<g>
</g>
</svg>
